<?xml version="1.0" encoding="utf-8"?>
<!-- Generator: Adobe Illustrator 23.0.3, SVG Export Plug-In . SVG Version: 6.00 Build 0)  -->
<svg version="1.1" id="Calque_1" xmlns="http://www.w3.org/2000/svg" xmlns:xlink="http://www.w3.org/1999/xlink" x="0px" y="0px"
	 viewBox="0 0 600 600" style="enable-background:new 0 0 600 600;" xml:space="preserve">
<style type="text/css">
	.st0{fill:#222222;}
	.st1{fill:#FFFFFF;}
</style>
<circle class="st0" cx="299" cy="299" r="294"/>
<image style="display:none;overflow:visible;" width="760" height="107" xlink:href="A11776078447C01D.jpg"  transform="matrix(1 0 0 1 152.332 208.2446)">
</image>
<g>
	<path class="st1" d="M416.7,442.2L416.7,442.2c15.7,5.5,32.7,8.5,50.3,8.5V315.3h-49.9L416.7,442.2z"/>
	<path class="st1" d="M439.9,216.3C457,210.4,467,210,467,210v-63.6c-48,0-90.8,22.2-118.7,56.9c-27.8-36.5-71.7-60-121.1-60
		C143.2,143.3,75,211.5,75,295.5c0,84.1,68.1,152.2,152.2,152.2c48,0,90.8-22.2,118.7-56.9c15.3,20,35.4,36.2,58.7,46.6l0,0V298.6
		H467v-71.2h-46C421,227.4,423,222.1,439.9,216.3z M226.4,383.1c-46.7,0-84.6-37.9-84.6-84.6c0-46.7,37.9-84.6,84.6-84.6
		c46.7,0,84.6,37.9,84.6,84.6C310.9,345.3,273.1,383.1,226.4,383.1z"/>
	<path class="st1" d="M225.9,297.9c0,18.9-15.4,34.3-34.3,34.3c-18.9,0-34.3-15.4-34.3-34.3c0-18.9,15.4-34.3,34.3-34.3
		C210.6,263.6,225.9,279,225.9,297.9z"/>
</g>
</svg>
